<?xml version="1.0" encoding="UTF-8"?>
<svg width="16px" height="20px" viewBox="0 0 16 20" version="1.1" xmlns="http://www.w3.org/2000/svg" xmlns:xlink="http://www.w3.org/1999/xlink">
    <!-- Generator: Sketch 49 (51002) - http://www.bohemiancoding.com/sketch -->
    <title>Group 7</title>
    <desc>Created with Sketch.</desc>
    <defs></defs>
    <g id="4-3订单" stroke="none" stroke-width="1" fill="none" fill-rule="evenodd">
        <g id="4-3产品归还-预约顺丰/已填信息" transform="translate(-18.000000, -133.000000)">
            <g id="Group" transform="translate(0.000000, 64.000000)">
                <g id="Group-7" transform="translate(18.000000, 69.000000)">
                    <path d="M8,0 C3.58097085,0 0,3.87685832 0,8.65676913 C0,13.4367957 8,20 8,20 C8,20 16,13.4367957 16,8.65676913 C16,3.87685832 12.4191369,0 8,0 Z" id="Fill-1" fill="#3ED8C4"></path>
                    <path d="M8.48,10.5142857 L8.48,11.1904762 C8.18823529,11.2666667 7.90588235,11.3333333 7.62352941,11.4 L7.62352941,13.1238095 L6.96470588,13.1238095 L6.96470588,11.552381 C5.98588235,11.7619048 4.97882353,11.9428571 3.92470588,12.0952381 L3.76470588,11.4285714 C4.04705882,11.3904762 4.32941176,11.3428571 4.61176471,11.3047619 L4.61176471,5.40952381 L3.86823529,5.40952381 L3.86823529,4.76190476 L8.34823529,4.76190476 L8.34823529,5.27619048 L11.9905882,5.27619048 L11.9905882,5.9047619 C11.7835294,7.66666667 11.3505882,9.17142857 10.7011765,10.4190476 C11.1529412,11.2 11.7176471,11.9238095 12.3858824,12.5809524 L11.9341176,13.1047619 C11.3035294,12.447619 10.7764706,11.7619048 10.3435294,11.047619 C9.83529412,11.847619 9.23294118,12.5333333 8.52705882,13.0952381 L8.06588235,12.5619048 C8.82823529,11.952381 9.45882353,11.2285714 9.96705882,10.3714286 C9.27058824,9.01904762 8.85647059,7.54285714 8.72470588,5.94285714 L8.34823529,5.94285714 L8.34823529,5.40952381 L7.62352941,5.40952381 L7.62352941,10.7238095 C7.91529412,10.6571429 8.19764706,10.5904762 8.48,10.5142857 Z M9.34588235,5.94285714 C9.45882353,7.31428571 9.78823529,8.56190476 10.3247059,9.6952381 C10.8329412,8.60952381 11.1811765,7.36190476 11.3505882,5.94285714 L9.34588235,5.94285714 Z M6.96470588,10.8761905 L6.96470588,9.58095238 L5.27058824,9.58095238 L5.27058824,11.2 C5.84470588,11.1047619 6.40941176,10.9904762 6.96470588,10.8761905 Z M5.27058824,8.96190476 L6.96470588,8.96190476 L6.96470588,7.51428571 L5.27058824,7.51428571 L5.27058824,8.96190476 Z M5.27058824,6.88571429 L6.96470588,6.88571429 L6.96470588,5.40952381 L5.27058824,5.40952381 L5.27058824,6.88571429 Z" id="取" fill="#FFFFFF"></path>
                </g>
            </g>
        </g>
    </g>
</svg>