<?xml version="1.0" encoding="UTF-8"?>
<svg width="16px" height="20px" viewBox="0 0 16 20" version="1.1" xmlns="http://www.w3.org/2000/svg" xmlns:xlink="http://www.w3.org/1999/xlink">
    <!-- Generator: Sketch 49 (51002) - http://www.bohemiancoding.com/sketch -->
    <title>Group 6</title>
    <desc>Created with Sketch.</desc>
    <defs></defs>
    <g id="4-3订单" stroke="none" stroke-width="1" fill="none" fill-rule="evenodd">
        <g id="4-3产品归还-预约顺丰/已填信息" transform="translate(-18.000000, -258.000000)">
            <g id="Group-3" transform="translate(0.000000, 242.000000)">
                <g id="Group-6" transform="translate(18.000000, 16.000000)">
                    <path d="M7.99999914,0 C3.58096999,0 -6.95321951e-07,3.87685832 -4.89184886e-07,8.65676913 C-2.8304283e-07,13.4367957 8,20 8,20 C8,20 15.9999997,13.4367957 15.9999995,8.65676913 C15.9999993,3.87685832 12.419136,0 7.99999914,0 Z" id="Fill-1-Copy" fill="#36646E"></path>
                    <path d="M3.97176471,11.6380952 L3.76470588,11.0571429 C3.89647059,11 3.97176471,10.9238095 3.97176471,10.8285714 L3.97176471,5.60952381 L4.63058824,5.60952381 L4.63058824,10.8095238 C5.10117647,10.6761905 5.57176471,10.5142857 6.04235294,10.3333333 L6.04235294,4.83809524 L6.71058824,4.83809524 L6.71058824,13.4666667 L6.04235294,13.4666667 L6.04235294,11 C5.38352941,11.2380952 4.68705882,11.447619 3.97176471,11.6380952 Z M8.63058824,6.91428571 C8.51764706,7.21904762 8.40470588,7.5047619 8.28235294,7.77142857 C8.62117647,8.7047619 9.05411765,9.56190476 9.6,10.3428571 C10.1647059,9.37142857 10.4658824,8.22857143 10.5223529,6.91428571 L8.63058824,6.91428571 Z M7.88705882,8.51428571 C7.70823529,8.8 7.52,9.05714286 7.32235294,9.2952381 L6.89882353,8.77142857 C7.67058824,7.78095238 8.19764706,6.43809524 8.47058824,4.76190476 L9.14823529,4.87619048 C9.05411765,5.36190476 8.95058824,5.81904762 8.83764706,6.23809524 L11.9811765,6.23809524 L11.9811765,6.91428571 L11.1717647,6.91428571 C11.1058824,8.47619048 10.7294118,9.81904762 10.0329412,10.9238095 C10.6541176,11.7047619 11.3694118,12.4 12.1976471,13.0095238 L11.7364706,13.5619048 C10.9176471,12.9428571 10.2117647,12.2571429 9.61882353,11.5142857 C8.99764706,12.3047619 8.19764706,12.9619048 7.21882353,13.4952381 L6.83294118,12.8761905 C7.82117647,12.3809524 8.61176471,11.7428571 9.19529412,10.9619048 C8.66823529,10.2 8.22588235,9.39047619 7.88705882,8.51428571 Z" id="收" fill="#FFFFFF"></path>
                </g>
            </g>
        </g>
    </g>
</svg>