<?xml version="1.0" encoding="UTF-8"?>
<svg width="9px" height="12px" viewBox="0 0 9 12" version="1.1" xmlns="http://www.w3.org/2000/svg" xmlns:xlink="http://www.w3.org/1999/xlink">
    <!-- Generator: Sketch 49 (51002) - http://www.bohemiancoding.com/sketch -->
    <title>地址</title>
    <desc>Created with Sketch.</desc>
    <defs></defs>
    <g id="4-3订单" stroke="none" stroke-width="1" fill="none" fill-rule="evenodd">
        <g id="4-3短租单订单详情/待付款" transform="translate(-40.000000, -229.000000)" fill="#333333" fill-rule="nonzero">
            <g id="Group-3" transform="translate(40.000000, 229.000000)">
                <g id="地址">
                    <path d="M8.99190274,4.20069947 C8.99190274,1.88238892 6.9820304,0 4.49595137,0 C2.01687538,0 0,1.88238892 0,4.20069947 C0,4.96686479 0.224097264,5.68679599 0.609264438,6.30104921 L0.602261398,6.30104921 L4.49595137,11.5585284 L8.38964134,6.30104921 L8.3826383,6.30104921 C8.76780547,5.68679599 8.99190274,4.97346966 8.99190274,4.20069947 M4.49595137,6.30765409 C3.25641337,6.30765409 2.24797568,5.36976206 2.24797568,4.20730435 C2.24797568,3.04484663 3.25641337,2.10695461 4.49595137,2.10695461 C5.73548936,2.10695461 6.74392705,3.05145151 6.74392705,4.20730435 C6.74392705,5.36315719 5.73548936,6.30765409 4.49595137,6.30765409" id="Shape"></path>
                </g>
            </g>
        </g>
    </g>
</svg>