<?xml version="1.0" encoding="UTF-8"?>
<svg width="15px" height="14px" viewBox="0 0 15 14" version="1.1" xmlns="http://www.w3.org/2000/svg" xmlns:xlink="http://www.w3.org/1999/xlink">
    <!-- Generator: Sketch 49 (51002) - http://www.bohemiancoding.com/sketch -->
    <title>ICON/评论赞*0.6</title>
    <desc>Created with Sketch.</desc>
    <defs></defs>
    <g id="0-切图/规范" stroke="none" stroke-width="1" fill="none" fill-rule="evenodd" opacity="0.600000024">
        <g transform="translate(-1174.000000, -976.000000)" fill="#DDDDDD" id="ICON/评论*0.6">
            <g transform="translate(1174.000000, 976.000000)">
                <g id="ICON/评论">
                    <g id="消息" fill-rule="nonzero">
                        <path d="M0,0.378826811 C9.20442977e-18,0.306696287 9.20442977e-18,0.180420682 0,-3.35558381e-09 C0.192979674,-1.04210332e-09 0.324558619,1.14636926e-10 0.394736836,1.1463693e-10 L14.6052632,1.1463693e-10 C14.675057,-2.24015572e-09 14.8066359,-3.39689597e-09 15,-3.35558381e-09 C15,0.18557046 15,0.311846065 15,0.378826811 L15,11.2928274 C15,11.3598082 15,11.4860838 15,11.6716542 C14.8066359,11.6716542 14.675057,11.6716542 14.6052632,11.6716542 L9.8968421,11.6716542 L7.42263157,13.6377654 L4.94842106,11.6716542 L0.394736836,11.6716542 C0.328159465,11.6716542 0.19658052,11.6716542 0,11.6716542 C9.64540621e-18,11.4946892 9.64540621e-18,11.3684136 0,11.2928274 L0,0.378826811 Z M4.65789474,7 C5.48632186,7 6.15789474,6.32842712 6.15789474,5.5 C6.15789474,4.67157288 5.48632186,4 4.65789474,4 C3.82946761,4 3.15789474,4.67157288 3.15789474,5.5 C3.15789474,6.32842712 3.82946761,7 4.65789474,7 Z M10.9736842,7 C11.8021113,7 12.4736842,6.32842712 12.4736842,5.5 C12.4736842,4.67157288 11.8021113,4 10.9736842,4 C10.1452571,4 9.47368421,4.67157288 9.47368421,5.5 C9.47368421,6.32842712 10.1452571,7 10.9736842,7 Z" id="Shape"></path>
                    </g>
                </g>
            </g>
        </g>
    </g>
</svg>