<?xml version="1.0" encoding="UTF-8"?>
<svg width="10px" height="12px" viewBox="0 0 10 12" version="1.1" xmlns="http://www.w3.org/2000/svg" xmlns:xlink="http://www.w3.org/1999/xlink">
    <!-- Generator: Sketch 49 (51002) - http://www.bohemiancoding.com/sketch -->
    <title>Shape</title>
    <desc>Created with Sketch.</desc>
    <defs></defs>
    <g id="4-3订单" stroke="none" stroke-width="1" fill="none" fill-rule="evenodd">
        <g id="4-3长租订单详情/已预约/常规分期" transform="translate(-40.000000, -164.000000)" fill="#FFFFFF" fill-rule="nonzero">
            <g id="Group" transform="translate(40.000000, 164.000000)">
                <path d="M0,0 L8.61158262,7.46299915e-05 C9.36994179,-0.00763838953 9.99131688,0.583478484 9.99987728,1.32076549 L9.99987728,9.1666288 L9.92195615,9.24364806 L8.1167835,11.0302423 L8.03496633,11.1110494 L1.38829465,11.1110494 C0.62922157,11.1180579 0.00785074253,10.5258148 0,9.7878333 L0,0 Z M7.93756492,3.55085466 C8.0392545,3.55987631 8.13637647,3.4953693 8.18935988,3.38361609 C8.2423433,3.27186288 8.2423433,3.13151916 8.18935988,3.01976595 C8.13637647,2.90801274 8.0392545,2.84350574 7.93756492,2.85252739 L2.22334934,2.85252739 C2.12165977,2.84350574 2.0245378,2.90801274 1.97155438,3.01976595 C1.91857096,3.13151916 1.91857096,3.27186288 1.97155438,3.38361609 C2.0245378,3.4953693 2.12165977,3.55987631 2.22334934,3.55085466 L7.93756492,3.55085466 Z M7.93756492,5.13795639 C8.0392545,5.14697804 8.13637647,5.08247104 8.18935988,4.97071783 C8.2423433,4.85896462 8.2423433,4.7186209 8.18935988,4.60686769 C8.13637647,4.49511448 8.0392545,4.43060747 7.93756492,4.43962912 L2.22334934,4.43962912 C2.12165977,4.43060747 2.0245378,4.49511448 1.97155438,4.60686769 C1.91857096,4.7186209 1.91857096,4.85896462 1.97155438,4.97071783 C2.0245378,5.08247104 2.12165977,5.14697804 2.22334934,5.13795639 L7.93756492,5.13795639 Z M7.93756492,6.9902064 C8.03925448,6.999228 8.13637642,6.93472099 8.18935982,6.82296779 C8.24234322,6.7112146 8.24234322,6.57087091 8.18935982,6.45911771 C8.13637642,6.34736452 8.03925448,6.2828575 7.93756492,6.29187911 L2.22334934,6.29187911 C2.12165978,6.2828575 2.02453784,6.34736452 1.97155445,6.45911771 C1.91857105,6.57087091 1.91857105,6.7112146 1.97155445,6.82296779 C2.02453784,6.93472099 2.12165978,6.999228 2.22334934,6.9902064 L7.93756492,6.9902064 Z" id="Shape"></path>
            </g>
        </g>
    </g>
</svg>