<?xml version="1.0" encoding="UTF-8"?>
<svg width="20px" height="20px" viewBox="0 0 20 20" version="1.1" xmlns="http://www.w3.org/2000/svg" xmlns:xlink="http://www.w3.org/1999/xlink">
    <!-- Generator: Sketch 49 (51002) - http://www.bohemiancoding.com/sketch -->
    <title>icons8-like_it</title>
    <desc>Created with Sketch.</desc>
    <defs></defs>
    <g id="2-发现" stroke="none" stroke-width="1" fill="none" fill-rule="evenodd">
        <g id="2-1动态" transform="translate(-62.000000, -490.000000)">
            <g id="动态1" transform="translate(17.000000, 287.000000)">
                <text id="#来自产品体验-升级你的大学生活品质，你" font-family="PingFangSC-Regular, PingFang SC" font-size="14" font-weight="normal" line-spacing="20">
                    <tspan x="47" y="170" fill="#3ED8C4">#来自产品体验</tspan>
                    <tspan x="139.4" y="170" fill="#666666">  升级你的大学生活品质，你需</tspan>
                    <tspan x="47" y="190" fill="#666666">要这 12 件「宿舍神器」</tspan>
                </text>
                <g id="ICON-动态-赞、评论转发" transform="translate(41.000000, 202.000000)">
                    <text id="21" font-family="PingFangSC-Regular, PingFang SC" font-size="11" font-weight="normal" fill="#333333">
                        <tspan x="79" y="15">21</tspan>
                    </text>
                    <text id="32" font-family="PingFangSC-Regular, PingFang SC" font-size="11" font-weight="normal" fill="#333333">
                        <tspan x="28" y="15">32</tspan>
                    </text>
                    <g id="赞-2" stroke-width="1" fill-rule="evenodd" transform="translate(7.000000, 3.000000)" fill="#3ED8C4">
                        <g id="ICON-赞/点击">
                            <g id="ICON-赞/默认">
                                <path d="M0,15 L3,15 L3,3.99939759 L0,3.99939759 L0,15 Z M0.99939759,12.9993976 L1.99879518,12.9993976 L1.99879518,13.9987952 L0.99939759,13.9987952 L0.99939759,12.9993976 Z M8.7253012,3.99939759 C8.89337349,3.52771084 9,3.02891566 9,2.49939759 C9,1.57409639 8.71987952,0.713855422 8.24096386,0 L5.2373494,0 C5.32048193,0.321686747 5.37831325,0.652409639 5.37831325,0.99939759 C5.37831325,2.20120482 4.83795181,3.26566265 3.99939759,3.99939759 L3.99939759,15 L15,15 L15,3.99939759 L8.7253012,3.99939759 Z" id="Shape" fill-rule="nonzero"></path>
                            </g>
                        </g>
                    </g>
                    <g id="Group-13" transform="translate(282.000000, 10.000000)" fill="#DDDDDD" fill-rule="evenodd" stroke-width="1">
                        <g>
                            <circle id="Oval-3" cx="1.5" cy="1.5" r="1.5"></circle>
                            <circle id="Oval-3-Copy" cx="7.5" cy="1.5" r="1.5"></circle>
                            <circle id="Oval-3-Copy-2" cx="13.5" cy="1.5" r="1.5"></circle>
                        </g>
                    </g>
                    <g id="ICON/评论" transform="translate(56.000000, 5.000000)" fill="#DDDDDD" fill-rule="evenodd" stroke-width="1">
                        <g id="消息">
                            <path d="M0,0.378826811 C9.20442977e-18,0.306696287 9.20442977e-18,0.180420682 0,-3.35558381e-09 C0.192979674,-1.04210332e-09 0.324558619,1.14636926e-10 0.394736836,1.1463693e-10 L14.6052632,1.1463693e-10 C14.675057,-2.24015572e-09 14.8066359,-3.39689597e-09 15,-3.35558381e-09 C15,0.18557046 15,0.311846065 15,0.378826811 L15,11.2928274 C15,11.3598082 15,11.4860838 15,11.6716542 C14.8066359,11.6716542 14.675057,11.6716542 14.6052632,11.6716542 L9.8968421,11.6716542 L7.42263157,13.6377654 L4.94842106,11.6716542 L0.394736836,11.6716542 C0.328159465,11.6716542 0.19658052,11.6716542 0,11.6716542 C9.64540621e-18,11.4946892 9.64540621e-18,11.3684136 0,11.2928274 L0,0.378826811 Z M4.65789474,7 C5.48632186,7 6.15789474,6.32842712 6.15789474,5.5 C6.15789474,4.67157288 5.48632186,4 4.65789474,4 C3.82946761,4 3.15789474,4.67157288 3.15789474,5.5 C3.15789474,6.32842712 3.82946761,7 4.65789474,7 Z M10.9736842,7 C11.8021113,7 12.4736842,6.32842712 12.4736842,5.5 C12.4736842,4.67157288 11.8021113,4 10.9736842,4 C10.1452571,4 9.47368421,4.67157288 9.47368421,5.5 C9.47368421,6.32842712 10.1452571,7 10.9736842,7 Z" id="Shape" fill-rule="nonzero"></path>
                        </g>
                    </g>
                </g>
                <g id="ICON-动态-赞、评论转发" transform="translate(45.000000, 198.000000)" fill="#3ED8C4">
                    <g id="赞-2" transform="translate(3.000000, 7.000000)">
                        <g id="ICON-赞/点击">
                            <g id="ICON-赞/默认">
                                <path d="M0,15 L3,15 L3,3.99939759 L0,3.99939759 L0,15 Z M0.99939759,12.9993976 L1.99879518,12.9993976 L1.99879518,13.9987952 L0.99939759,13.9987952 L0.99939759,12.9993976 Z M8.7253012,3.99939759 C8.89337349,3.52771084 9,3.02891566 9,2.49939759 C9,1.57409639 8.71987952,0.713855422 8.24096386,0 L5.2373494,0 C5.32048193,0.321686747 5.37831325,0.652409639 5.37831325,0.99939759 C5.37831325,2.20120482 4.83795181,3.26566265 3.99939759,3.99939759 L3.99939759,15 L15,15 L15,3.99939759 L8.7253012,3.99939759 Z" id="Shape" fill-rule="nonzero"></path>
                            </g>
                        </g>
                    </g>
                </g>
            </g>
        </g>
    </g>
</svg>