<?xml version="1.0" encoding="UTF-8"?>
<svg width="16px" height="16px" viewBox="0 0 16 16" version="1.1" xmlns="http://www.w3.org/2000/svg" xmlns:xlink="http://www.w3.org/1999/xlink">
    <!-- Generator: Sketch 49 (51002) - http://www.bohemiancoding.com/sketch -->
    <title>时间</title>
    <desc>Created with Sketch.</desc>
    <defs></defs>
    <g id="4-3订单" stroke="none" stroke-width="1" fill="none" fill-rule="evenodd">
        <g id="4-3产品归还-预约顺丰/已填信息" transform="translate(-18.000000, -82.000000)" fill="#3ED8C4">
            <g id="Group" transform="translate(0.000000, 64.000000)">
                <g id="时间" transform="translate(18.000000, 18.000000)">
                    <path d="M11.0879694,11.1028437 C10.9562972,11.2252265 10.777401,11.2941176 10.5906753,11.2941176 C10.4040596,11.2941176 10.2250809,11.2252265 10.0935186,11.1028437 L7.73545118,8.92277363 C7.60322952,8.80097533 7.5290832,8.63551973 7.52941286,8.46289802 L7.52941286,4.41529634 C7.52941286,4.05594943 7.84423942,3.76470588 8.23260792,3.76470588 C8.62108632,3.76470588 8.93594035,4.05594943 8.93594035,4.41529634 L8.93594035,8.19358478 L11.0879694,10.1835499 C11.2199439,10.3054499 11.2941176,10.4709055 11.2941176,10.6435272 C11.2941176,10.8160473 11.2199439,10.9815283 11.0879694,11.1034282 M8,0 C3.58868356,0 0,3.58868356 0,8 C0,12.4113425 3.58868356,16 8,16 C12.4113425,16 16,12.4113425 16,8 C16,3.58868356 12.4113425,0 8,0" id="Fill-1"></path>
                </g>
            </g>
        </g>
    </g>
</svg>